<?xml version="1.0" standalone="no"?><!DOCTYPE svg PUBLIC "-//W3C//DTD SVG 1.1//EN" "http://www.w3.org/Graphics/SVG/1.1/DTD/svg11.dtd"><svg class="icon" width="16px" height="16.00px" viewBox="0 0 1024 1024" version="1.1" xmlns="http://www.w3.org/2000/svg"><path fill="#000000" d="M685.44 354.816a8 8 0 0 0-8.064-8l-65.92 0.256L512 465.6l-99.328-118.4-66.048-0.32a7.936 7.936 0 0 0-8 8c0 1.92 0.64 3.712 1.92 5.248l130.048 154.944-130.112 154.88a8 8 0 0 0 6.08 13.184l66.112-0.256L512 564.48l99.328 118.4 65.92 0.256a7.936 7.936 0 0 0 8.064-8 8.32 8.32 0 0 0-1.92-5.12l-129.92-154.944 130.112-155.008a8 8 0 0 0 1.792-5.184z"  /><path fill="#000000" d="M512 65.024a448 448 0 1 0 0 896 448 448 0 0 0 0-896z m0 819.968A372.032 372.032 0 0 1 512 140.992a372.032 372.032 0 0 1 0 744z"  /></svg>