<?xml version="1.0" standalone="no"?><!DOCTYPE svg PUBLIC "-//W3C//DTD SVG 1.1//EN" "http://www.w3.org/Graphics/SVG/1.1/DTD/svg11.dtd"><svg class="icon" width="16px" height="16.00px" viewBox="0 0 1024 1024" version="1.1" xmlns="http://www.w3.org/2000/svg"><path fill="#000000" d="M432.896 72.128a450.624 450.624 0 0 1 158.784 0l2.752 0.448a32 32 0 0 1 25.792 25.728l15.68 84.864c36.224 13.504 69.568 32.96 99.584 57.536l81.216-28.928a32.128 32.128 0 0 1 35.072 9.536l1.856 2.112c34.752 40.896 61.44 87.296 79.552 137.664l0.896 2.56a32 32 0 0 1-9.28 35.2l-65.408 55.936a358.4 358.4 0 0 1 0 115.392l65.408 55.936a32.256 32.256 0 0 1 9.472 35.008l-0.896 2.56c-18.048 50.304-44.8 96.64-79.552 137.728l-1.792 2.112a32 32 0 0 1-35.136 9.472l-81.216-28.864c-29.952 24.576-63.36 43.84-99.584 57.472l-15.68 84.928a32 32 0 0 1-25.792 25.664l-2.752 0.512a447.424 447.424 0 0 1-158.72 0l-2.752-0.512a32 32 0 0 1-25.792-25.664l-15.808-85.312a346.24 346.24 0 0 1-98.88-57.344l-81.792 29.12a32.128 32.128 0 0 1-35.136-9.472l-1.792-2.112a443.648 443.648 0 0 1-79.616-137.728l-0.896-2.56a32 32 0 0 1 9.28-35.2l66.048-56.512a351.552 351.552 0 0 1 0-113.984l-66.24-56.512a32.128 32.128 0 0 1-9.28-35.2l0.896-2.56c18.112-50.368 44.8-96.64 79.616-137.728l1.792-2.112a32 32 0 0 1 35.072-9.536l81.856 29.12a353.408 353.408 0 0 1 98.88-57.28l15.808-85.312a32 32 0 0 1 25.792-25.728z m79.616 254.592a175.808 175.808 0 1 0 0 351.552 175.808 175.808 0 0 0 0-351.552z" /></svg>