<?xml version="1.0" standalone="no"?><!DOCTYPE svg PUBLIC "-//W3C//DTD SVG 1.1//EN" "http://www.w3.org/Graphics/SVG/1.1/DTD/svg11.dtd"><svg class="icon" width="16px" height="16.00px" viewBox="0 0 1024 1024" version="1.1" xmlns="http://www.w3.org/2000/svg"><path fill="#000000" d="M699.008 353.024h-46.912c-10.24 0-19.84 4.864-25.92 13.248L468.992 584.32 397.824 485.504a32 32 0 0 0-25.92-13.312h-46.912a8 8 0 0 0-6.464 12.736l124.544 172.8c12.736 17.664 39.04 17.664 51.712 0l210.56-292.032a7.936 7.936 0 0 0-6.4-12.672z"  /><path fill="#000000" d="M512 64a448 448 0 1 0 0 896A448 448 0 0 0 512 64z m0 820.032A372.032 372.032 0 0 1 512 139.968a372.032 372.032 0 0 1 0 744.064z"  /></svg>