<?xml version="1.0" standalone="no"?><!DOCTYPE svg PUBLIC "-//W3C//DTD SVG 1.1//EN" "http://www.w3.org/Graphics/SVG/1.1/DTD/svg11.dtd"><svg class="icon" width="16px" height="16.00px" viewBox="0 0 1024 1024" version="1.1" xmlns="http://www.w3.org/2000/svg"><path fill="#000000" d="M512 64a448 448 0 1 0 0 896A448 448 0 0 0 512 64z m0 820.032A372.032 372.032 0 0 1 512 139.968a372.032 372.032 0 0 1 0 744.064z"  /><path fill="#000000" d="M686.72 638.592l-142.592-103.04V288a8 8 0 0 0-8-8h-48.128A8 8 0 0 0 480 288v275.392c0 2.56 1.216 4.992 3.328 6.528l165.376 120.576c3.584 2.56 8.576 1.792 11.2-1.728l28.608-38.976a8 8 0 0 0-1.792-11.2z"  /></svg>