<?xml version="1.0" standalone="no"?><!DOCTYPE svg PUBLIC "-//W3C//DTD SVG 1.1//EN" "http://www.w3.org/Graphics/SVG/1.1/DTD/svg11.dtd"><svg t="1609848973316" class="icon" viewBox="0 0 1024 1024" version="1.1" xmlns="http://www.w3.org/2000/svg" p-id="1712" xmlns:xlink="http://www.w3.org/1999/xlink" width="200" height="200"><defs><style type="text/css"></style></defs><path d="M357.12 582.51c-19.48-19.48-41.95-30-74.54-30s-55.07 10.49-74.58 30c-28.09 28.09-27 65.55-27 105.64s-1.12 77.54 27 105.64c19.48 19.47 42 30 74.55 30s55.06-10.49 74.54-30c28.1-28.1 27-65.56 27-105.64s1.13-77.55-26.97-105.64zM308.8 753.33c-4.87 6.37-14.23 12-26.22 12s-21.35-5.62-26.22-12c-6-7.87-9.74-16.48-9.74-65.18s3.74-57.69 9.74-65.56c4.87-6.37 14.23-11.61 26.22-11.61s21.35 5.24 26.22 11.61c6 7.87 9.74 16.86 9.74 65.56s-3.75 57.31-9.74 65.18z m59.94-353.49c0-24.72-5.62-44.58-19.86-58.44-11.24-11.23-28.47-18.73-52.44-22.1l-32.22-4.49c-9.36-1.13-15-4.5-18.35-7.87a17.57 17.57 0 0 1-5.25-12.36c0-11.61 9.37-24.72 32.22-24.72 11.61 0 33.71-1.13 50.57 15.73l41.21-41.21c-22.85-22.85-51.7-31.84-89.91-31.84-60.68 0-97.4 35.59-97.4 84.29 0 22.85 6 40.83 18.36 53.56 12 12.37 30 20.23 53.57 23.61l32.21 4.49c8.62 1.12 14.24 3.75 17.61 7.12 3.75 4.12 5.24 9.36 5.24 15.73 0 15.36-12.36 24-38.2 24-21.36 0-45.71-4.87-59.57-18.74l-41.95 42c27 27.72 60.31 35.21 101.14 35.21 56.19-0.06 103.02-29.65 103.02-83.97z m165.94 155H429.05v266.67h65.55v-95.15h40.08c59.19 0 91-42 91-85.79s-31.81-85.78-91-85.78z m-3 112.75H494.6V613.6h37.09c18 0 28.47 13.11 28.47 27s-10.49 26.94-28.47 26.94z m286.56-425c-19.48-19.48-42-30-74.54-30s-55.07 10.49-74.55 30c-28.09 28.09-27 65.55-27 105.64s-1.12 77.54 27 105.64c19.48 19.47 42 30 74.55 30s55.06-10.49 74.54-30c28.1-28.1 27-65.56 27-105.64s1.11-77.63-26.99-105.72z m-48.31 170.74c-4.87 6.37-14.24 12-26.22 12s-21.36-5.62-26.23-12c-6-7.87-9.74-16.48-9.74-65.18s3.75-57.69 9.74-65.56c4.87-6.37 14.24-11.61 26.23-11.61s21.35 5.24 26.22 11.61c6 7.87 9.74 16.86 9.74 65.56s-3.75 57.31-9.74 65.18z m-340.14 40.46c19.48 19.47 42 30 74.55 30 20.6 0 37.46-4.12 51.69-12.36L576.64 492 610 458.66l-19.5-19.48c16.1-25.85 15.35-57.69 15.35-91 0-40.09 1.13-77.55-27-105.64-19.48-19.48-42-30-74.54-30s-55.07 10.49-74.55 30c-28.09 28.09-27 65.55-27 105.64s-1.06 77.51 27.03 105.61z m48.32-171.2C483 276.22 492.35 271 504.34 271s21.35 5.24 26.22 11.61c6 7.87 9.74 16.86 9.74 65.56 0 18-0.75 30.34-1.5 39.33l-12.74-12.74-33.34 33.34 16.86 16.86a24.35 24.35 0 0 1-5.24 0.38c-12 0-21.36-5.62-26.23-12-6-7.87-9.74-16.48-9.74-65.18s3.75-57.7 9.74-65.57zM848.77 64H175.23A111.23 111.23 0 0 0 64 175.23v673.54A111.23 111.23 0 0 0 175.23 960h673.54A111.23 111.23 0 0 0 960 848.77V175.23A111.23 111.23 0 0 0 848.77 64zM912 848.77A63.31 63.31 0 0 1 848.77 912H175.23A63.31 63.31 0 0 1 112 848.77V175.23A63.31 63.31 0 0 1 175.23 112h673.54A63.31 63.31 0 0 1 912 175.23z" fill="#096DD9" p-id="1713"></path></svg>